# xmcd
#
# Track frame offsets: 
#        150
#        15191
#        33713
#        47464
#        56699
#        76774
#        91192
#        112565
#        131238
#        147304
#        163703
#        192696
#        223110
#        240888
#        263013
#
# Disc length: 3637 seconds
#
# Revision: 1
# Processed by: cddbd v1.5.2PL0 Copyright (c) Steve Scherf et al.
# Submitted via: ExactAudioCopy v0.99pb4
#
DISCID=bf0e330f
DTITLE=Various Artist - Reprise ! When jazz meets pop 3
DYEAR=2007
DGENRE=Jazz
TTITLE0=Erika Stucky - Bad
TTITLE1=Pink Turtle - Walk On The Wild Side
TTITLE2=Wes Montgomery - California Dreaming
TTITLE3=Karen Lanaud - Highway To Hell
TTITLE4=Aldo Romano, Remi Vignolo, Baptiste Trotignon - Say It Ain't S
TTITLE4=o
TTITLE5=Chet Baker - Spinning Wheel
TTITLE6=Arcoiris - Horse With No Name
TTITLE7=Earl Klugh - I Heard It Through The Grapevine
TTITLE8=Eldissa - Staying Alive
TTITLE9=Lord Sitar - I Can See For Miles
TTITLE10=Lou Donaldson - Ode To Billy Joe
TTITLE11=Bireli Lagrene - Just The Way You Are
TTITLE12=Quincy Jones - I Got You (I Feel Good)
TTITLE13=Bugge Wesseltoft and Sidsel Endresen - Fifty Ways To Leave Your
TTITLE13=Lover
TTITLE14=Maxence Cyrin - Unfinished Sympathy
EXTD=YEAR: 2007
EXTT0=
EXTT1=
EXTT2=
EXTT3=
EXTT4=
EXTT5=
EXTT6=
EXTT7=
EXTT8=
EXTT9=
EXTT10=
EXTT11=
EXTT12=
EXTT13=
EXTT14=
PLAYORDER=
